<svg width="96" height="96" viewBox="0 0 96 96" fill="none" xmlns="http://www.w3.org/2000/svg">
<path d="M96 24.6981C96 13.6209 87.0199 4.64124 75.9428 4.64124C66.1065 4.64124 57.925 11.7221 56.2149 21.0646H26.5356C11.9039 21.0646 0 32.9685 0 47.6001C0 62.2322 11.9039 74.1361 26.5356 74.1361H39.2178V88.2692C39.2178 89.5232 39.9666 90.6428 41.1253 91.1233C41.502 91.2786 41.9003 91.3586 42.3062 91.3586C43.1319 91.3586 43.9051 91.0399 44.4834 90.4607L60.9215 74.1361H62.3234C76.9554 74.1361 88.8593 62.232 88.8593 47.5999C88.8593 45.2345 88.5449 42.9415 87.9595 40.7582C92.8409 37.1001 96 31.2678 96 24.6981ZM75.9426 9.6774C84.225 9.6774 90.9636 16.4156 90.9636 24.6981C90.9636 32.9805 84.225 39.7187 75.9426 39.7187C67.6601 39.7187 60.9219 32.9805 60.9219 24.6981C60.9219 16.4156 67.6601 9.6774 75.9426 9.6774Z" fill="#32373E"/>
<path d="M67.454 26.8141H73.8271V33.1873C73.8271 34.3559 74.7741 35.3029 75.9427 35.3029C77.1113 35.3029 78.0583 34.3559 78.0583 33.1873V26.8141H84.4315C85.6005 26.8141 86.5475 25.8667 86.5475 24.6985C86.5475 23.5299 85.6005 22.5825 84.4315 22.5825H78.0583V16.2093C78.0583 15.0412 77.1113 14.0938 75.9427 14.0938C74.7741 14.0938 73.8271 15.0412 73.8271 16.2093V22.5825H67.454C66.2854 22.5825 65.3384 23.5299 65.3384 24.6985C65.3384 25.8667 66.2854 26.8141 67.454 26.8141Z" fill="#32373E"/>
</svg>
