<svg width="24" height="24" viewBox="0 0 24 24" fill="none" xmlns="http://www.w3.org/2000/svg">
<path d="M17.9667 0.00976562H6.01427C2.70262 0.00976562 0 2.71238 0 6.02404V17.9955C0 21.2881 2.70262 23.9907 6.01427 23.9907H17.9857C21.2974 23.9907 24 21.2881 24 17.9765V6.02404C23.981 2.71238 21.2784 0.00976562 17.9667 0.00976562ZM7.99366 19.4229H4.5678V9.52602H7.99366V19.4229ZM6.2617 8.00342C5.29104 8.00342 4.51071 7.22309 4.51071 6.25243C4.51071 5.28177 5.29104 4.50144 6.2617 4.50144C7.23236 4.50144 8.01269 5.28177 8.01269 6.25243C7.99366 7.22309 7.21332 8.00342 6.2617 8.00342ZM19.4322 19.4229H19.4132H16.5583V14.6267C16.5583 13.4658 16.406 11.9812 14.8263 11.9812C13.2086 11.9812 12.9421 13.2374 12.9421 14.5506V19.4229H10.0872V9.52602H12.7518V10.8583H12.8279C13.2466 10.097 14.2173 9.50699 15.7399 9.50699C18.8803 9.50699 19.4322 11.3151 19.4322 13.9987V19.4229Z" fill="#9035B2"/>
</svg>
